<svg viewBox="0 0 800 750" xmlns="http://www.w3.org/2000/svg">
  <defs>
    <marker id="arrow" markerWidth="10" markerHeight="10" refX="9" refY="3" orient="auto">
      <path d="M0,0 L0,6 L9,3 z" fill="#333"/>
    </marker>
  </defs>

  <!-- Orchestrator -->
  <rect x="300" y="10" width="200" height="40" fill="#e8f4fc" stroke="#333" stroke-width="2" rx="5"/>
  <text x="400" y="35" font-family="sans-serif" font-size="14" text-anchor="middle">Orchestrator</text>

  <!-- Arrow to Phase1 -->
  <line x1="400" y1="50" x2="400" y2="70" stroke="#333" stroke-width="2" marker-end="url(#arrow)"/>

  <!-- Phase1 -->
  <rect x="20" y="80" width="760" height="180" fill="#f5f5f5" stroke="#666" stroke-width="2" rx="10"/>
  <text x="40" y="100" font-family="sans-serif" font-size="16" font-weight="bold">Phase1: 企画</text>

  <!-- Phase1 Agents -->
  <rect x="40" y="110" width="70" height="30" fill="#e8f4fc" stroke="#333" stroke-width="2" rx="3"/>
  <text x="75" y="130" font-family="sans-serif" font-size="12" text-anchor="middle">企画</text>
  <rect x="120" y="110" width="70" height="30" fill="#e8f4fc" stroke="#333" stroke-width="2" rx="3"/>
  <text x="155" y="130" font-family="sans-serif" font-size="12" text-anchor="middle">設計</text>
  <rect x="200" y="110" width="90" height="30" fill="#e8f4fc" stroke="#333" stroke-width="2" rx="3"/>
  <text x="245" y="130" font-family="sans-serif" font-size="12" text-anchor="middle">シナリオ</text>
  <rect x="300" y="110" width="70" height="30" fill="#e8f4fc" stroke="#333" stroke-width="2" rx="3"/>
  <text x="335" y="130" font-family="sans-serif" font-size="12" text-anchor="middle">キャラ</text>
  <rect x="380" y="110" width="70" height="30" fill="#e8f4fc" stroke="#333" stroke-width="2" rx="3"/>
  <text x="415" y="130" font-family="sans-serif" font-size="12" text-anchor="middle">世界観</text>
  <rect x="460" y="110" width="100" height="30" fill="#e8f4fc" stroke="#333" stroke-width="2" rx="3"/>
  <text x="510" y="130" font-family="sans-serif" font-size="12" text-anchor="middle">タスク分解</text>

  <!-- Phase1 Loop -->
  <rect x="200" y="155" width="200" height="30" fill="#fff3cd" stroke="#333" stroke-width="1" rx="3"/>
  <text x="300" y="175" font-family="sans-serif" font-size="12" text-anchor="middle">承認プロセス Loop</text>
  <line x1="200" y1="140" x2="200" y2="155" stroke="#333" stroke-width="1"/>
  <line x1="400" y1="140" x2="400" y2="155" stroke="#333" stroke-width="1"/>
  <line x1="200" y1="185" x2="200" y2="200" stroke="#333" stroke-width="1"/>
  <line x1="400" y1="185" x2="400" y2="200" stroke="#333" stroke-width="1"/>

  <!-- Phase1 Humans -->
  <rect x="40" y="200" width="50" height="30" fill="#e8f4fc" stroke="#333" stroke-width="2" rx="3"/>
  <text x="65" y="220" font-family="sans-serif" font-size="12" text-anchor="middle">H</text>
  <rect x="100" y="200" width="50" height="30" fill="#e8f4fc" stroke="#333" stroke-width="2" rx="3"/>
  <text x="125" y="220" font-family="sans-serif" font-size="12" text-anchor="middle">H</text>
  <rect x="160" y="200" width="50" height="30" fill="#e8f4fc" stroke="#333" stroke-width="2" rx="3"/>
  <text x="185" y="220" font-family="sans-serif" font-size="12" text-anchor="middle">H</text>
  <rect x="220" y="200" width="50" height="30" fill="#e8f4fc" stroke="#333" stroke-width="2" rx="3"/>
  <text x="245" y="220" font-family="sans-serif" font-size="12" text-anchor="middle">H</text>
  <rect x="280" y="200" width="50" height="30" fill="#e8f4fc" stroke="#333" stroke-width="2" rx="3"/>
  <text x="305" y="220" font-family="sans-serif" font-size="12" text-anchor="middle">H</text>
  <rect x="340" y="200" width="50" height="30" fill="#e8f4fc" stroke="#333" stroke-width="2" rx="3"/>
  <text x="365" y="220" font-family="sans-serif" font-size="12" text-anchor="middle">H</text>

  <!-- Arrow to Phase2 -->
  <line x1="400" y1="260" x2="400" y2="280" stroke="#333" stroke-width="2" marker-end="url(#arrow)"/>

  <!-- Phase2 -->
  <rect x="20" y="290" width="760" height="180" fill="#f5f5f5" stroke="#666" stroke-width="2" rx="10"/>
  <text x="40" y="310" font-family="sans-serif" font-size="16" font-weight="bold">Phase2: 開発</text>

  <!-- Phase2 Agents -->
  <rect x="40" y="320" width="100" height="30" fill="#e8f4fc" stroke="#333" stroke-width="2" rx="3"/>
  <text x="90" y="340" font-family="sans-serif" font-size="12" text-anchor="middle">Code Leader</text>
  <rect x="150" y="320" width="100" height="30" fill="#e8f4fc" stroke="#333" stroke-width="2" rx="3"/>
  <text x="200" y="340" font-family="sans-serif" font-size="12" text-anchor="middle">Asset Leader</text>
  <rect x="260" y="320" width="100" height="30" fill="#e8f4fc" stroke="#333" stroke-width="2" rx="3"/>
  <text x="310" y="340" font-family="sans-serif" font-size="12" text-anchor="middle">Code Agents</text>
  <rect x="370" y="320" width="100" height="30" fill="#e8f4fc" stroke="#333" stroke-width="2" rx="3"/>
  <text x="420" y="340" font-family="sans-serif" font-size="12" text-anchor="middle">Asset Agents</text>
  <rect x="480" y="320" width="70" height="30" fill="#e8f4fc" stroke="#333" stroke-width="2" rx="3"/>
  <text x="515" y="340" font-family="sans-serif" font-size="12" text-anchor="middle">統合</text>

  <!-- Phase2 Loop -->
  <rect x="200" y="365" width="200" height="30" fill="#fff3cd" stroke="#333" stroke-width="1" rx="3"/>
  <text x="300" y="385" font-family="sans-serif" font-size="12" text-anchor="middle">承認プロセス Loop</text>

  <!-- Phase2 Humans -->
  <rect x="80" y="410" width="50" height="30" fill="#e8f4fc" stroke="#333" stroke-width="2" rx="3"/>
  <text x="105" y="430" font-family="sans-serif" font-size="12" text-anchor="middle">H</text>
  <rect x="180" y="410" width="50" height="30" fill="#e8f4fc" stroke="#333" stroke-width="2" rx="3"/>
  <text x="205" y="430" font-family="sans-serif" font-size="12" text-anchor="middle">H</text>
  <rect x="280" y="410" width="50" height="30" fill="#e8f4fc" stroke="#333" stroke-width="2" rx="3"/>
  <text x="305" y="430" font-family="sans-serif" font-size="12" text-anchor="middle">H</text>
  <rect x="380" y="410" width="50" height="30" fill="#e8f4fc" stroke="#333" stroke-width="2" rx="3"/>
  <text x="405" y="430" font-family="sans-serif" font-size="12" text-anchor="middle">H</text>
  <rect x="480" y="410" width="50" height="30" fill="#e8f4fc" stroke="#333" stroke-width="2" rx="3"/>
  <text x="505" y="430" font-family="sans-serif" font-size="12" text-anchor="middle">H</text>

  <!-- Arrow to Phase3 -->
  <line x1="400" y1="470" x2="400" y2="490" stroke="#333" stroke-width="2" marker-end="url(#arrow)"/>

  <!-- Phase3 -->
  <rect x="20" y="500" width="760" height="150" fill="#f5f5f5" stroke="#666" stroke-width="2" rx="10"/>
  <text x="40" y="520" font-family="sans-serif" font-size="16" font-weight="bold">Phase3: 品質</text>

  <!-- Phase3 Agents -->
  <rect x="200" y="530" width="80" height="30" fill="#e8f4fc" stroke="#333" stroke-width="2" rx="3"/>
  <text x="240" y="550" font-family="sans-serif" font-size="12" text-anchor="middle">テスト</text>
  <rect x="320" y="530" width="80" height="30" fill="#e8f4fc" stroke="#333" stroke-width="2" rx="3"/>
  <text x="360" y="550" font-family="sans-serif" font-size="12" text-anchor="middle">レビュー</text>

  <!-- Phase3 Loop -->
  <rect x="200" y="575" width="200" height="30" fill="#fff3cd" stroke="#333" stroke-width="1" rx="3"/>
  <text x="300" y="595" font-family="sans-serif" font-size="12" text-anchor="middle">承認プロセス Loop</text>

  <!-- Phase3 Humans -->
  <rect x="210" y="615" width="50" height="30" fill="#e8f4fc" stroke="#333" stroke-width="2" rx="3"/>
  <text x="235" y="635" font-family="sans-serif" font-size="12" text-anchor="middle">H</text>
  <rect x="340" y="615" width="50" height="30" fill="#e8f4fc" stroke="#333" stroke-width="2" rx="3"/>
  <text x="365" y="635" font-family="sans-serif" font-size="12" text-anchor="middle">H</text>

  <!-- Arrow to Release -->
  <line x1="300" y1="650" x2="300" y2="700" stroke="#333" stroke-width="2" marker-end="url(#arrow)"/>
  <text x="270" y="680" font-family="sans-serif" font-size="12">承認</text>

  <!-- Release -->
  <rect x="250" y="700" width="100" height="40" fill="#e8f4fc" stroke="#333" stroke-width="2" rx="5"/>
  <text x="300" y="725" font-family="sans-serif" font-size="14" text-anchor="middle">リリース</text>

  <!-- Feedback arrow to Phase2 -->
  <path d="M 390 645 L 700 645 L 700 380 L 560 380" fill="none" stroke="#333" stroke-width="2" marker-end="url(#arrow)"/>
  <text x="680" y="520" font-family="sans-serif" font-size="12">修正</text>
</svg>
